<?xml version="1.0" encoding="UTF-8"?>
<svg width="464px" height="464px" viewBox="0 0 464 464" version="1.1" xmlns="http://www.w3.org/2000/svg" xmlns:xlink="http://www.w3.org/1999/xlink">
    <title>Artboard</title>
    <g id="Artboard" stroke="none" stroke-width="1" fill="none" fill-rule="evenodd">
        <path d="M60.683,2.007 L60.9048998,2.01468824 C60.3549759,1.99169784 59.8025226,1.99169784 59.2508051,2.01457474 L59.0402154,2.02330682 L58.8303777,2.04311562 C54.2108768,2.47919903 49.9234397,4.62349467 46.809419,8.05891622 C43.6972632,11.4977101 41.9823918,15.9680002 41.9991536,20.5996204 L41.9991536,379.642406 C41.9991536,384.565479 43.9577212,389.284094 47.4397145,392.76679 C50.9213179,396.248217 55.6432993,398.20727 60.5679394,398.20727 L211.20922,398.20727 C216.176726,398.273714 220.965857,396.350416 224.504768,392.864366 C228.046455,389.375582 230.041539,384.613852 230.041539,379.642506 C230.041539,374.671438 228.046578,369.910252 224.50534,366.42121 L224.189645,366.117474 C220.788204,362.921202 216.307144,361.123061 211.638958,361.08057 L79.134,361.08 L79.134,39.131 L327.276,39.131 L327.277673,223.923198 C327.210367,228.894163 329.136841,233.683425 332.630184,237.219649 C336.114813,240.752205 340.874965,242.742906 345.844039,242.742906 C350.813128,242.742906 355.575611,240.752308 359.06451,237.215784 L359.368375,236.900396 C362.566107,233.502196 364.368148,229.02327 364.412549,224.356951 L364.412549,20.5693062 C364.412549,15.6481772 362.453814,10.9269996 358.972222,7.44488006 L358.662074,7.14187857 C355.215636,3.85264954 350.629803,2.01230988 345.851841,2.00770996 L60.683,2.007 Z" id="Path" fill="#181824" fill-rule="nonzero"></path>
        <path d="M344.95862,286.797766 L344.592,286.824 L344.650712,286.819636 C340.151339,287.14496 335.930168,289.098866 332.76992,292.305054 L332.399083,292.692817 L274.286783,356.058017 C269.819741,360.93828 268.287476,367.817674 270.254568,374.1266 C272.228896,380.438198 277.401272,385.222971 283.841849,386.694922 L284.22073,386.77767 C290.540693,388.089081 297.108228,386.019273 301.538849,381.292909 L327.49,352.987 L327.491396,442.531617 C327.414523,447.503014 329.342181,452.296997 332.834605,455.836922 C336.318839,459.373994 341.083274,461.366606 346.054939,461.366606 C351.024735,461.366606 355.784096,459.375513 359.275217,455.836979 L359.579111,455.521554 C362.777078,452.122939 364.577161,447.643057 364.619676,442.977446 L364.619,352.988 L390.510672,381.227911 C395.08972,386.113877 401.829981,388.170995 408.271302,386.693509 C414.707971,385.222222 419.884337,380.434918 421.852007,374.127894 C423.819492,367.817707 422.287251,360.938471 417.825506,356.063813 L359.707896,292.692817 C355.862861,288.59021 350.472945,286.456811 344.95862,286.797766 Z" id="Path" fill="#F6383E" fill-rule="nonzero"></path>
        <path d="M141.839892,268.624502 L141.839892,131.067466 C141.839892,121.299749 152.401612,115.189625 160.872197,120.052102 L280.552329,188.829069 C289.044122,193.712927 289.044122,205.975765 280.552329,210.859968 L160.872197,279.636935 C152.401612,284.506654 141.839892,278.38946 141.839892,268.621571 L141.839892,268.62433 L141.839892,268.624502 Z" id="Path-Copy-3" fill="#181824" fill-rule="nonzero"></path>
    </g>
</svg>