<?xml version="1.0" encoding="UTF-8"?>
<svg viewBox="0 0 800 800" version="1.1" xmlns="http://www.w3.org/2000/svg" xmlns:xlink="http://www.w3.org/1999/xlink">
    <defs>
        <linearGradient x1="50.000007%" y1="91.02495%" x2="50.000007%" y2="1.2759875%" id="linearGradient-1">
            <stop stop-color="#181824" offset="0%"></stop>
            <stop stop-color="#424254" offset="100%"></stop>
        </linearGradient>
    </defs>
    <g stroke="none" stroke-width="1" fill="none" fill-rule="evenodd">
        <rect fill="#181824" fill-rule="nonzero" x="0" y="0" width="800" height="800" rx="158"></rect>
        <path d="M744.5754,627.1428 C745.683,633.7887 758.9958,665.9108 758.9958,694.7308 C758.9958,703.5921 757.8881,724.6584 745.683,745.7039 C719.0992,796.677 659.2649,800 650.4036,800 C634.8964,800 619.3892,795.5694 610.507,792.2255 C562.8778,773.3953 549.5859,725.7661 537.3808,686.9563 L525.2175,643.7577 L272.5672,643.7577 L255.9523,700.2691 C252.6293,712.4533 248.1987,723.5299 243.789,734.6065 C226.0247,776.7393 197.2256,797.7847 150.6831,797.7847 C141.8427,797.7847 126.3146,797.7847 107.4845,790.0102 C66.4803,774.503 41.0041,740.1447 41.0041,694.7308 C41.0041,670.3414 47.6501,652.6189 54.3169,630.4658 L247.0911,86.439 C270.3519,18.851 305.8178,2.2153 382.2671,0 L412.1738,0 C455.4142,1.1076 498.6128,3.3229 527.4328,39.8965 C540.7038,56.5114 548.4783,76.4492 555.1034,96.3871 L744.5755,627.1429 L744.5754,627.1428 Z" fill="url(#linearGradient-1)" fill-rule="nonzero"></path>
        <rect x="383.1557" y="380.5271" width="34.355" height="38.279"></rect>
        <path d="M256.1628,210.1334 C253.5361,210.3819 251.0951,211.6024 249.323,213.5574 C247.5537,215.5124 246.5762,218.0572 246.58701,220.6948 L246.58701,579.7681 C246.58701,582.5695 247.7012,585.2536 249.6834,587.2362 C251.663,589.2157 254.3498,590.330911 257.1542,590.330911 L447.9053,590.330911 L447.9026,590.330911 C450.7341,590.3708 453.4618,589.2758 455.4769,587.2908 C457.492,585.3058 458.6278,582.5972 458.6278,579.7682 C458.6278,576.9392 457.4919,574.2309 455.4769,572.2456 C453.4618,570.2606 450.7341,569.1657 447.9026,569.2066 L267.7203,569.2066 L267.7203,231.2568 L531.8632,231.2568 L531.8632,464.1572 L531.8659,464.1572 C531.8249,466.9859 532.9199,469.7109 534.9077,471.7231 C536.8927,473.7354 539.6013,474.8686 542.4303,474.8686 C545.2593,474.8686 547.9704,473.7355 549.9557,471.7231 C551.9407,469.7108 553.0384,466.9858 552.998603,464.1572 L552.998603,220.695 C552.998603,217.8963 551.8834,215.2095 549.9012,213.227 C547.9217,211.2474 545.2349,210.1361 542.4304,210.1334 L257.157,210.1334 L257.1597,210.1334 C256.8293,210.123125 256.4989,210.123125 256.1685,210.1334 L256.1629,210.1334 L256.1628,210.1334 Z" fill="#FFFFFF" fill-rule="nonzero"></path>
        <path d="M541.8139,493.9272 L541.8139,493.9245 C539.1709,494.1156 536.697,495.2951 534.8813,497.2257 L476.769,560.5909 C474.2297,563.3651 473.3587,567.2805 474.4782,570.871 C475.6005,574.4588 478.5438,577.1837 482.2105,578.0217 C485.8775,578.8627 489.7163,577.6913 492.2886,574.9473 L532.0767,531.5496 L532.0767,641.781 L532.074,641.781 C532.033,644.6071 533.1307,647.332 535.1158,649.3441 C537.1008,651.3592 539.8122,652.4923 542.6412,652.4923 C545.4702,652.4923 548.1785,651.3592 550.1666,649.3441 C552.1516,647.3318 553.2465,644.6068 553.2056,641.781 L553.2056,531.5496 L592.9937,574.9473 C595.5658,577.6914 599.4021,578.8628 603.069,578.0217 C606.736,577.1835 609.6821,574.4584 610.8013,570.871 C611.9208,567.2805 611.0498,563.3652 608.5105,560.5909 L550.3982,497.2257 C548.192,494.8721 545.0301,493.657 541.8139,493.9245 L541.8139,493.9272 Z" fill="#F6383E" fill-rule="nonzero"></path>
        <circle fill="#FFFFFF" fill-rule="nonzero" cx="400" cy="400" r="81.3048"></circle>
        <path d="M369.9921,441.0936 L369.9921,361.3144 C369.9921,355.6494 376.1176,352.1057 381.0303,354.9258 L450.4414,394.8145 C455.3664,397.647 455.3664,404.7591 450.4414,407.5918 L381.0303,447.4805 C376.1176,450.3048 369.9921,446.757 369.9921,441.0919 L369.9921,441.0935 L369.9921,441.0936 Z" fill="#24242F" fill-rule="nonzero"></path>
    </g>
</svg>