<?xml version="1.0" encoding="UTF-8"?>
<svg width="1024px" height="1024px" viewBox="0 0 1024 1024" version="1.1" xmlns="http://www.w3.org/2000/svg" xmlns:xlink="http://www.w3.org/1999/xlink">
    <title>Artboard</title>
    <defs>
        <path d="M796.215686,538 C820.929412,538.536471 845.643137,539.877647 862.298039,560.8 C869.819608,570.188235 874.386275,581.722353 878.147059,592.988235 L986.672549,895.557647 C987.209804,899.312941 995,917.552941 995,934.183529 C995,939.28 994.462745,951.350588 987.478431,963.152941 C972.166667,992.122353 938.05098,994 932.947059,994 C924.082353,994 915.217647,991.585882 910.113725,989.44 C882.713725,978.710588 875.192157,951.618824 868.207843,929.355294 L861.223529,904.677647 L716.433333,904.677647 L707.031373,936.865882 C705.15098,943.84 702.464706,950.009412 700.047059,956.447059 C689.839216,980.588235 673.452941,992.390588 646.858824,992.390588 L646.021962,992.389923 C640.816566,992.377957 632.324665,992.150588 622.145098,987.830588 C598.77451,978.978824 584,959.397647 584,933.647059 C584,919.698824 587.760784,909.774118 591.521569,896.898824 L701.658824,587.355294 C715.090196,548.729412 735.237255,539.341176 779.023529,538 L796.215686,538 Z M873.5,719 C848.371044,719 828,739.371044 828,764.5 C828,789.628956 848.371044,810 873.5,810 C898.628956,810 919,789.628956 919,764.5 C919,739.371044 898.628956,719 873.5,719 Z" id="path-1"></path>
    </defs>
    <g id="Artboard" stroke="none" stroke-width="1" fill="none" fill-rule="evenodd">
        <g id="Group" transform="translate(512.000567, 371.499429) scale(-1, 1) rotate(-180.000000) translate(-512.000567, -371.499429) translate(27.001297, 30.000163)" fill="#FF0000" fill-rule="nonzero">
            <g id="YouTube-Icon-Full-Color-Logo.wine" transform="translate(-0.000000, 0.000000)">
                <path d="M486.420707,-1.25358925e-13 C494.50526,0.0112636999 536.21331,0.119745803 589.692647,1.16455051 L644.657526,155.643401 C658.088899,194.269283 678.235958,203.657519 722.022232,204.998695 L739.214389,204.998695 C739.708664,204.987966 740.202938,204.976914 740.697148,204.965391 L742.17952,204.929254 L742.17952,204.929254 L743.661119,204.889384 C766.86475,204.230791 789.641134,201.865707 805.296742,182.198695 C812.818311,172.81046 817.384977,161.276342 821.145762,150.01046 L867.299133,21.3363061 C907.039719,33.2603378 938.227325,65.128895 949.390791,105.392843 L949.731983,106.649541 C969.394673,180.475638 969.980702,332.114163 969.998166,341.08626 L969.998541,341.691396 C969.990595,347.819821 969.593286,501.776199 949.72785,576.35198 C938.57144,618.331524 905.705708,651.38804 863.965277,662.616184 C790.579788,682.391296 502.870907,682.980595 485.788627,682.998156 L484.634825,682.998532 C472.952562,682.990542 180.154669,682.591045 106.023862,662.616184 C64.2875645,651.383909 31.4135649,618.331524 20.2654224,576.347849 C0.80937171,503.294023 0.0311296812,354.066563 -4.87244617e-15,342.245252 L-4.86919356e-15,340.7521 C0.0311296812,328.930193 0.80937171,179.695436 20.2654224,106.649541 C31.4135649,64.6699967 64.2875645,31.6093498 106.027996,20.3894676 C178.645929,0.814325895 461.096834,0.0313202267 483.576718,-1.76834784e-13 L486.420707,-1.25358925e-13 Z M384.998703,197.998695 L384.998703,485.998695 L638.998703,342.006949 L384.998703,197.998695 Z" id="Combined-Shape"></path>
            </g>
        </g>
        <mask id="mask-2" fill="white">
            <use xlink:href="#path-1"></use>
        </mask>
        <use id="Combined-Shape" fill="#3E4643" xlink:href="#path-1"></use>
        <polygon id="Fill-1" fill="#323232" mask="url(#mask-2)" points="0 0 1126 0 1126 1044 0 1044"></polygon>
    </g>
</svg>